# xmcd
#
# Track frame offsets: 
#        150
#        11354
#        26736
#        41293
#        53771
#        68775
#        82766
#        96562
#        111246
#        123493
#        138236
#        153031
#        167619
#        179730
#        195855
#        210571
#        225550
#        237589
#
# Disc length: 3331 seconds
#
# Revision: 2
# Processed by: cddbd v1.5.2PL0 Copyright (c) Steve Scherf et al.
# Submitted via: ExactAudioCopy v0.99pb4
#
DISCID=e30d0112
DTITLE=Sinatra, Frank - Night and Day
DYEAR=1900
DGENRE=Jazz
TTITLE0=Blue skies
TTITLE1=Guess I'll hang my tears out to dry
TTITLE2=Sweet Lorraine
TTITLE3=Falling in love with you
TTITLE4=There's no business like show business
TTITLE5=September song
TTITLE6=I believe
TTITLE7=Everybody loves somebody
TTITLE8=Why was I born
TTITLE9=I've got a crush on you
TTITLE10=Body and Soul
TTITLE11=That old feeling 
TTITLE12=Almost like being in love
TTITLE13=It never entered my mind
TTITLE14=The song is you
TTITLE15=Night and day
TTITLE16=The nearness of you
TTITLE17=All of me
EXTD=
EXTT0=
EXTT1=
EXTT2=
EXTT3=
EXTT4=
EXTT5=
EXTT6=
EXTT7=
EXTT8=
EXTT9=
EXTT10=
EXTT11=
EXTT12=
EXTT13=
EXTT14=
EXTT15=
EXTT16=
EXTT17=
PLAYORDER=
